Coordinates
version=1
nRows=10
nColumns=46
inDegrees=yes

Units are S.I. units (second, meters, Newtons, ...)
Angles are in degrees.

endheader
time	pelvis_tilt	pelvis_list	pelvis_rotation	pelvis_tx	pelvis_ty	pelvis_tz	bb_angle	bb_tx	bb_ty	bb_tz	hip_flexion_r	hip_adduction_r	hip_rotation_r	knee_angle_r	knee_angle_r_beta	ankle_angle_r	subtalar_angle_r	mtp_angle_r	crank_angle_r	hip_flexion_l	hip_adduction_l	hip_rotation_l	knee_angle_l	knee_angle_l_beta	ankle_angle_l	subtalar_angle_l	mtp_angle_l	crank_angle_l	lumbar_extension	lumbar_bending	lumbar_rotation	arm_flex_r	arm_add_r	arm_rot_r	elbow_flex_r	pro_sup_r	wrist_flex_r	wrist_dev_r	arm_flex_l	arm_add_l	arm_rot_l	elbow_flex_l	pro_sup_l	wrist_flex_l	wrist_dev_l
      7.50500000	    -25.27540660	     -0.43608727	      6.05064304	      0.34497414	      1.16392264	     -0.22572835	      0.00000000	      0.50000000	      0.00000000	      0.25000000	     55.43581318	     -1.68870690	      1.57388110	     92.02871959	      1.60620416	    -15.74830901	    -12.17755929	      0.00000000	      0.00000000	     47.06839823	     -3.61762792	      1.04840055	     39.57386103	      0.69069417	    -12.20796091	     -9.69288810	      0.00000000	      0.00000000	    -56.74445889	     -1.72493651	      2.33518503	     33.17359158	    -31.97493540	     13.34677032	     87.95177048	     50.40972379	      0.00000000	      0.00000000	     49.70681697	    -37.61256716	     32.13492629	     87.76689193	     51.35573847	      0.00000000	      0.00000000
      7.51000000	    -25.04000979	     -1.15259421	      5.16634981	      0.34556307	      1.16292671	     -0.22614444	      0.00000000	      0.50000000	      0.00000000	      0.25000000	     56.73038399	     -0.79880126	      1.40286192	     93.98607792	      1.64036651	    -15.47179702	    -11.86534795	      0.00000000	      0.00000000	     45.22522079	     -4.74469046	      0.82807033	     37.22443724	      0.64968899	    -13.32127941	     -9.58469886	      0.00000000	      0.00000000	    -56.46465020	     -1.50337480	      3.45737895	     33.56674666	    -32.31919245	     14.14258985	     87.57257918	     50.42078037	      0.00000000	      0.00000000	     49.07164487	    -37.30721257	     31.96324678	     87.23094297	     51.24574768	      0.00000000	      0.00000000
      7.51500000	    -24.88646803	     -2.00634983	      4.49268543	      0.34587860	      1.16163210	     -0.22672567	      0.00000000	      0.50000000	      0.00000000	      0.25000000	     58.15327097	     -0.07364722	      0.87846503	     95.90988326	      1.67394325	    -15.18812064	    -11.66062663	      0.00000000	      0.00000000	     43.56125267	     -5.86552300	      0.76085476	     35.00660662	      0.61098055	    -14.17257505	     -9.03431082	      0.00000000	      0.00000000	    -56.10107563	     -1.03778759	      4.50133519	     33.80705501	    -32.40593837	     14.38133587	     87.50212418	     50.40181576	      0.00000000	      0.00000000	     48.45971954	    -37.29156853	     31.97730511	     86.97710289	     51.18202667	      0.00000000	      0.00000000
      7.52000000	    -24.44927234	     -2.36015767	      3.65352235	      0.34638592	      1.16109348	     -0.22743340	      0.00000000	      0.50000000	      0.00000000	      0.25000000	     59.26254724	      0.44473209	      0.91132609	     97.72979621	      1.70570672	    -14.97660013	    -11.20911798	      0.00000000	      0.00000000	     41.31936425	     -6.67479099	      0.23214192	     32.54759256	      0.56806265	    -15.51652905	     -8.87121636	      0.00000000	      0.00000000	    -56.08020906	     -0.93003162	      5.57115034	     34.45464534	    -33.69237844	     16.31548805	     87.04835200	     50.53223019	      0.00000000	      0.00000000	     48.32178575	    -36.30706369	     31.69811931	     85.67247139	     50.94817971	      0.00000000	      0.00000000
      7.52500000	    -24.39993442	     -3.05375480	      2.95570573	      0.34652964	      1.15969577	     -0.22829558	      0.00000000	      0.50000000	      0.00000000	      0.25000000	     60.84266166	      0.99596061	      0.51331496	     99.48371257	      1.73631834	    -14.78608140	    -11.20532271	      0.00000000	      0.00000000	     39.74528373	     -7.68490025	     -0.06409182	     30.52903088	      0.53283211	    -16.29881011	     -8.16518743	      0.00000000	      0.00000000	    -55.67347944	     -0.49900709	      6.52414394	     34.71513269	    -33.86144322	     16.54131429	     87.03467872	     50.54138280	      0.00000000	      0.00000000	     47.87699192	    -36.31182272	     31.76691133	     85.50267665	     50.92549014	      0.00000000	      0.00000000
      7.53000000	    -24.10915897	     -3.24672405	      1.85341942	      0.34727618	      1.15905489	     -0.22863231	      0.00000000	      0.50000000	      0.00000000	      0.25000000	     62.11561330	      1.63857998	      0.78046439	    101.10047508	      1.76453617	    -14.74398512	    -10.84708129	      0.00000000	      0.00000000	     37.57317507	     -8.60132871	     -1.52651934	     28.23542706	      0.49280117	    -17.28426250	     -7.31396296	      0.00000000	      0.00000000	    -55.62191374	     -0.77342623	      7.53873822	     35.02080711	    -34.98836976	     17.89409919	     86.88582980	     50.64689813	      0.00000000	      0.00000000	     47.73579616	    -35.58108385	     31.67211989	     84.77794157	     50.79594900	      0.00000000	      0.00000000
      7.53500000	    -24.20296130	     -3.82199705	      1.25204321	      0.34718409	      1.15768663	     -0.22970379	      0.00000000	      0.50000000	      0.00000000	      0.25000000	     63.82815703	      1.99007578	      0.39009096	    102.62965149	      1.79122533	    -14.70235236	    -10.58056763	      0.00000000	      0.00000000	     36.17011367	     -9.42371620	     -1.84510706	     26.38832627	      0.46056318	    -17.98181898	     -6.40203734	      0.00000000	      0.00000000	    -55.18417356	     -0.31189424	      8.37950460	     35.36249582	    -35.33618694	     18.18763234	     86.93936421	     50.67278774	      0.00000000	      0.00000000	     47.43799248	    -35.53811954	     31.72739593	     84.53811789	     50.76007747	      0.00000000	      0.00000000
      7.54000000	    -23.90058222	     -3.87990019	      0.13043022	      0.34768969	      1.15717474	     -0.22986695	      0.00000000	      0.50000000	      0.00000000	      0.25000000	     65.09974380	      2.59845503	      0.74106233	    104.02792584	      1.81562982	    -14.67565084	    -10.17734051	      0.00000000	      0.00000000	     34.05483009	    -10.23753583	     -3.64792417	     24.40631182	      0.42597050	    -18.82805512	     -4.83051753	      0.00000000	      0.00000000	    -55.18987946	     -0.70854383	      9.36702352	     35.64889892	    -36.84722219	     19.92384224	     87.01197344	     50.85292626	      0.00000000	      0.00000000	     47.50205856	    -34.74059781	     31.73527603	     83.64759241	     50.61721847	      0.00000000	      0.00000000
      7.54500000	    -23.66213270	     -4.17093868	     -0.70034040	      0.34781367	      1.15661182	     -0.23051863	      0.00000000	      0.50000000	      0.00000000	      0.25000000	     66.39405530	      3.10575477	      0.74280614	    105.27728916	      1.83743532	    -14.68962433	     -9.75547031	      0.00000000	      0.00000000	     32.20560605	    -11.00899917	     -4.81429795	     22.69878635	      0.39616856	    -19.34265062	     -3.22083861	      0.00000000	      0.00000000	    -55.15046618	     -0.65540288	     10.44833980	     36.25973390	    -38.60587820	     21.73179979	     87.36775713	     51.08389990	      0.00000000	      0.00000000	     47.82182291	    -34.02051311	     31.88728700	     82.57442869	     50.46847849	      0.00000000	      0.00000000
      7.55000000	    -23.56842468	     -4.39129169	     -1.32126714	      0.34781049	      1.15596390	     -0.23158718	      0.00000000	      0.50000000	      0.00000000	      0.25000000	     67.81731548	      3.29504748	      0.68436807	    106.39480707	      1.85693969	    -14.64355356	     -9.42778984	      0.00000000	      0.00000000	     30.59037673	    -11.53672659	     -5.74840246	     21.04000176	      0.36721731	    -20.16501749	     -1.65587232	      0.00000000	      0.00000000	    -55.02768801	     -0.47963312	     11.10634369	     36.54788773	    -39.51421059	     22.59879008	     87.61699078	     51.20431100	      0.00000000	      0.00000000	     47.84592161	    -33.73859670	     32.04339788	     82.01200053	     50.40291502	      0.00000000	      0.00000000
